:SAMPLES-PER-SECOND 30
:FULLY-SPECIFIED
:DEGREES
306
root  -3.38035 38.7155 71.1083 -9.50436 -9.47663 4.35291
RightUpLeg  -10.686 -11.3331 -5.14823
RightLeg  55.1089 5.45751 -17.9447
RightFoot  -6.27661 -0.185383 3.28473
RightToes  5.82077e-011 -3.18055e-015 -2.98177e-016
Spine  3.58154 4.37256 3.3969
Spine1  10.7042 6.47717 -7.10052
HEad  -9.21382 1.08197 -0.148304
LeftShoulder1  -3.88251e-019 9.70628e-020 -3.87848e-018
LeftArm  -23.1744 65.1961 -64.807
LeftForeArm  -4.63466 -8.53783 -2.91755
LeftHand  -0.482592 -1.79106 8.40733
RightShoulder  7.71623 10.6281 36.2591
RightArm  16.8497 -20.8781 27.9754
RightForeArm  -15.7428 29.0893 -14.9812
RightHand  -1.23902 2.16718 -18.6566
LeftUpLeg  -12.9027 2.20947 -12.0489
LeftLeg  21.617 4.86996 9.04386
LeftFoot  -2.16437 -0.604861 6.25539
LeftToes  1.39127e-010 -3.60802e-011 -7.31315e-011
307
root  -3.40688 38.8957 71.6728 -8.79679 -8.78218 3.45888
RightUpLeg  -13.0148 -11.0512 -3.58941
RightLeg  52.8155 3.67237 -19.1107
RightFoot  -8.40166 -0.112302 3.21927
RightToes  5.82077e-011 -3.18055e-015 -2.98177e-016
Spine  3.08676 3.98242 2.87661
Spine1  10.8569 5.68726 -5.65104
HEad  -9.3659 1.7593 -0.496197
LeftShoulder1  -3.88251e-019 9.70628e-020 -3.87848e-018
LeftArm  -23.3455 62.2461 -66.2581
LeftForeArm  -4.90201 -11.4973 -2.93683
LeftHand  -0.729017 -3.94803 9.65192
RightShoulder  7.88736 10.7326 36.8765
RightArm  16.4904 -22.4493 27.2334
RightForeArm  -13.1467 23.062 -11.2197
RightHand  -0.86029 0.769135 -15.812
LeftUpLeg  -12.3721 0.347433 -11.3568
LeftLeg  21.2876 5.74394 9.2812
LeftFoot  -2.54944 -0.524153 5.60437
LeftToes  1.39127e-010 -3.60802e-011 -7.31315e-011
308
root  -3.48481 39.0646 72.1964 -8.14699 -8.04792 2.80959
RightUpLeg  -14.4876 -10.3672 -2.43078
RightLeg  48.4122 2.12386 -18.2252
RightFoot  -9.02697 -0.126466 4.08914
RightToes  5.82077e-011 -3.18055e-015 -2.98177e-016
Spine  2.71652 3.67021 1.74778
Spine1  10.7639 4.89829 -3.97586
HEad  -9.4544 2.22909 -0.570676
LeftShoulder1  -3.88251e-019 9.70628e-020 -3.87848e-018
LeftArm  -23.2586 59.182 -67.2378
LeftForeArm  -4.88313 -13.6189 -2.87612
LeftHand  -1.05361 -5.81958 11.5379
RightShoulder  7.94995 10.7883 37.0602
RightArm  8.25499 -24.1507 26.7424
RightForeArm  -0.654497 16.2333 -5.45105
RightHand  -0.557639 0.0616321 -11.646
LeftUpLeg  -11.7256 -0.347674 -10.7766
LeftLeg  20.6686 5.5517 8.95979
LeftFoot  -2.91017 -0.491587 5.42927
LeftToes  1.39127e-010 -3.60802e-011 -7.31315e-011
309
root  -3.58645 39.1972 72.6983 -7.85458 -7.22031 2.40415
RightUpLeg  -14.6342 -9.48104 -1.88316
RightLeg  42.6103 1.6344 -15.4213
RightFoot  -9.15491 -0.145981 4.80689
RightToes  5.82077e-011 -3.18055e-015 -2.98177e-016
Spine  2.54516 3.40633 0.401691
Spine1  10.8207 4.17863 -2.36914
HEad  -9.78063 2.42894 -0.700945
LeftShoulder1  -3.88251e-019 9.70628e-020 -3.87848e-018
LeftArm  -22.4607 55.9936 -67.651
LeftForeArm  -5.03058 -14.9489 -3.01692
LeftHand  -1.2822 -6.69156 12.9731
RightShoulder  7.97863 10.8293 37.1093
RightArm  -0.15325 -26.0541 26.2124
RightForeArm  12.1576 8.44039 -2.60491
RightHand  -0.414674 0.354506 -8.22125
LeftUpLeg  -10.729 -0.664447 -10.4116
LeftLeg  19.9913 5.09253 8.51741
LeftFoot  -3.51669 -0.482628 5.64466
LeftToes  1.39127e-010 -3.60802e-011 -7.31315e-011
310
root  -3.68512 39.307 73.1718 -7.94493 -6.07243 2.11157
RightUpLeg  -13.4032 -8.7018 -1.82017
RightLeg  35.8922 2.43084 -11.6586
RightFoot  -9.99858 -0.123256 5.35519
RightToes  5.82077e-011 -3.18055e-015 -2.98177e-016
Spine  2.50718 3.03541 -0.624889
Spine1  11.3187 3.45683 -1.11211
HEad  -10.5459 2.6302 -0.998004
LeftShoulder1  -3.88251e-019 9.70628e-020 -3.87848e-018
LeftArm  -20.9805 52.6923 -67.5211
LeftForeArm  -5.16777 -15.9765 -3.25321
LeftHand  -1.25183 -6.34252 13.0261
RightShoulder  8.05611 10.8815 37.3719
RightArm  -2.02921 -28.1626 25.3314
RightForeArm  17.0996 1.93367 -2.93676
RightHand  -0.350946 0.527206 -6.72513
LeftUpLeg  -9.46913 -1.86167 -10.2441
LeftLeg  19.415 5.25524 8.36079
LeftFoot  -3.93044 -0.459223 5.59497
LeftToes  1.39127e-010 -3.60802e-011 -7.31315e-011
311
root  -3.7848 39.4049 73.6117 -8.15902 -4.7276 1.98302
RightUpLeg  -11.3958 -8.05454 -2.08801
RightLeg  28.8396 3.90118 -8.21715
RightFoot  -10.3786 -0.111273 5.61395
RightToes  5.82077e-011 -3.18055e-015 -2.98177e-016
Spine  2.55163 2.59512 -1.35799
Spine1  11.8625 2.79462 -0.350625
HEad  -11.283 2.83099 -1.21675
LeftShoulder1  -3.88251e-019 9.70628e-020 -3.87848e-018
LeftArm  -19.4781 49.7081 -67.1352
LeftForeArm  -5.18839 -17.0592 -3.18235
LeftHand  -1.04909 -5.42157 11.9073
RightShoulder  8.15013 10.9239 37.7355
RightArm  -3.14284 -31.1413 23.4718
RightForeArm  19.2106 -1.08356 -3.556
RightHand  -0.277328 -0.333557 -6.13857
LeftUpLeg  -8.14865 -3.76024 -10.3153
LeftLeg  18.8207 5.89604 8.35827
LeftFoot  -4.02377 -0.433722 5.32952
LeftToes  1.39127e-010 -3.60802e-011 -7.31315e-011
312
root  -3.90197 39.5158 74.0412 -8.26937 -3.55638 2.12569
RightUpLeg  -9.21439 -7.62197 -2.5835
RightLeg  22.4414 5.32971 -5.8051
RightFoot  -8.56301 -0.182765 5.09857
RightToes  5.82077e-011 -3.18055e-015 -2.98177e-016
Spine  2.35577 2.23253 -2.2077
Spine1  12.2396 2.26999 0.233988
HEad  -11.3451 2.79131 -1.20735
LeftShoulder1  -3.88251e-019 9.70628e-020 -3.87848e-018
LeftArm  -18.6874 47.5708 -66.8177
LeftForeArm  -5.69065 -17.9529 -2.80945
LeftHand  -0.932773 -5.00995 11.0545
RightShoulder  8.20021 10.9398 37.9431
RightArm  -2.53807 -35.1962 20.6605
RightForeArm  17.9645 -0.549388 -4.07574
RightHand  -0.19416 -1.53747 -5.485
LeftUpLeg  -6.6854 -5.37484 -10.6165
LeftLeg  17.714 6.48833 8.10351
LeftFoot  -4.00326 -0.429765 5.26789
LeftToes  1.39127e-010 -3.60802e-011 -7.31315e-011
313
root  -4.03404 39.671 74.4838 -8.25344 -2.74636 2.42132
RightUpLeg  -7.13824 -7.49875 -3.13175
RightLeg  17.8104 6.34688 -4.34676
RightFoot  -5.24392 -0.266004 3.97196
RightToes  5.82077e-011 -3.18055e-015 -2.98177e-016
Spine  1.50132 1.96127 -3.15998
Spine1  12.8968 1.83271 0.983203
HEad  -10.735 2.60171 -1.2282
LeftShoulder1  -3.88251e-019 9.70628e-020 -3.87848e-018
LeftArm  -18.81 46.3514 -66.6536
LeftForeArm  -7.23346 -18.282 -2.59049
LeftHand  -1.03543 -5.48602 11.6754
RightShoulder  8.20338 10.9342 37.9712
RightArm  -0.415303 -39.3568 17.2399
RightForeArm  14.9346 1.84521 -4.11636
RightHand  -0.164981 -1.99036 -5.18728
LeftUpLeg  -4.93577 -6.39719 -10.9632
LeftLeg  15.8095 6.93481 7.45587
LeftFoot  -3.79848 -0.444019 5.33353
LeftToes  1.39127e-010 -3.60802e-011 -7.31315e-011
314
root  -4.1669 39.8553 74.9285 -8.10947 -2.36876 2.54542
RightUpLeg  -5.32086 -6.91655 -3.40429
RightLeg  15.0984 6.17351 -3.51445
RightFoot  -2.76707 -0.265207 2.89771
RightToes  5.82077e-011 -3.18055e-015 -2.98177e-016
Spine  0.122849 1.70853 -3.5831
Spine1  13.8919 1.48621 1.55902
HEad  -9.92337 2.73873 -1.627
LeftShoulder1  -3.88251e-019 9.70628e-020 -3.87848e-018
LeftArm  -19.369 45.9127 -66.5196
LeftForeArm  -9.42525 -18.2478 -2.63494
LeftHand  -1.25684 -6.11822 13.342
RightShoulder  8.19592 10.9178 37.9718
RightArm  2.44971 -42.73 13.7485
RightForeArm  11.9498 4.48867 -3.8064
RightHand  -0.195673 -1.65235 -5.67496
LeftUpLeg  -3.19418 -7.06225 -11.0472
LeftLeg  13.5993 7.36283 6.71589
LeftFoot  -3.33737 -0.451673 5.18621
LeftToes  1.39127e-010 -3.60802e-011 -7.31315e-011
315
root  -4.30092 40.0289 75.3394 -7.75563 -2.54122 2.31365
RightUpLeg  -3.85841 -5.5998 -3.02413
RightLeg  13.0933 4.85769 -3.07622
RightFoot  -1.89987 -0.21671 2.16354
RightToes  5.82077e-011 -3.18055e-015 -2.98177e-016
Spine  -1.06836 1.48407 -3.1638
Spine1  14.3832 1.30256 1.46726
HEad  -9.15759 3.45986 -2.36162
LeftShoulder1  -3.88251e-019 9.70628e-020 -3.87848e-018
LeftArm  -19.8309 46.3856 -66.3414
LeftForeArm  -11.2762 -18.3804 -2.58945
LeftHand  -1.36107 -5.93984 14.6504
RightShoulder  8.19236 10.8972 38.0013
RightArm  5.26004 -45.3733 10.5685
RightForeArm  10.0746 6.92255 -3.63509
RightHand  -0.239957 -1.30456 -6.47803
LeftUpLeg  -1.88834 -7.37416 -10.6928
LeftLeg  11.6629 7.78484 6.20413
LeftFoot  -2.86791 -0.439303 4.82183
LeftToes  1.39127e-010 -3.60802e-011 -7.31315e-011
316
root  -4.44762 40.174 75.6979 -7.1963 -3.15175 1.86423
RightUpLeg  -2.74579 -3.94122 -2.19285
RightLeg  10.9041 3.25884 -2.65889
RightFoot  -1.45163 -0.170637 1.62442
RightToes  5.82077e-011 -3.18055e-015 -2.98177e-016
Spine  -1.68485 1.30161 -2.56055
Spine1  13.9127 1.13943 1.20917
HEad  -8.47439 4.5293 -3.09287
LeftShoulder1  -3.88251e-019 9.70628e-020 -3.87848e-018
LeftArm  -20.2841 47.8098 -66.3027
LeftForeArm  -12.1657 -18.6775 -2.33536
LeftHand  -1.24872 -4.94677 14.7534
RightShoulder  8.15271 10.8685 37.873
RightArm  7.60952 -47.5725 7.92088
RightForeArm  9.25244 9.1395 -3.81888
RightHand  -0.26605 -1.26066 -7.13218
LeftUpLeg  -1.03592 -7.21907 -10.0335
LeftLeg  10.0228 8.09077 5.88664
LeftFoot  -2.5948 -0.415124 4.44078
LeftToes  1.39127e-010 -3.60802e-011 -7.31315e-011
317
root  -4.61174 40.291 76.0099 -6.58238 -3.73742 1.5176
RightUpLeg  -1.88632 -2.65987 -1.51487
RightLeg  8.80325 2.2562 -2.04798
RightFoot  -0.708561 -0.135936 1.18522
RightToes  5.82077e-011 -3.18055e-015 -2.98177e-016
Spine  -2.04601 1.08279 -2.75291
Spine1  13.1515 0.709904 1.80195
HEad  -8.05279 5.61037 -3.63103
LeftShoulder1  -3.88251e-019 9.70628e-020 -3.87848e-018
LeftArm  -21.2026 49.6434 -66.6891
LeftForeArm  -12.2344 -18.5469 -2.23732
LeftHand  -1.06085 -3.99231 13.8824
RightShoulder  8.04325 10.8267 37.4321
RightArm  9.53445 -49.1988 5.98797
RightForeArm  8.47548 11.0391 -4.10009
RightHand  -0.30332 -1.07906 -7.82486
LeftUpLeg  -0.366679 -6.78294 -9.41082
LeftLeg  8.46348 8.16359 5.51577
LeftFoot  -2.38976 -0.391326 4.10812
LeftToes  1.39127e-010 -3.60802e-011 -7.31315e-011
318
root  -4.78135 40.3801 76.2704 -6.01757 -3.9756 1.39577
RightUpLeg  -1.23701 -1.98976 -1.17423
RightLeg  7.25088 1.81445 -1.46501
RightFoot  -0.143196 -0.10452 0.840404
RightToes  5.82077e-011 -3.18055e-015 -2.98177e-016
Spine  -2.41361 0.777091 -3.7339
Spine1  12.7326 0.0187877 3.2303
HEad  -8.10152 6.59344 -4.01493
LeftShoulder1  -3.88251e-019 9.70628e-020 -3.87848e-018
LeftArm  -22.6434 51.1479 -67.4691
LeftForeArm  -11.9057 -17.5942 -2.57435
LeftHand  -0.913018 -3.52388 12.6325
RightShoulder  7.92753 10.7889 36.9485
RightArm  11.3946 -50.0325 4.70395
RightForeArm  6.62927 12.6621 -4.35169
RightHand  -0.366737 -0.623514 -8.63976
LeftUpLeg  0.187518 -6.39262 -8.97871
LeftLeg  7.03252 8.01545 5.018
LeftFoot  -2.11701 -0.371064 3.80196
LeftToes  1.39127e-010 -3.60802e-011 -7.31315e-011
319
root  -4.93852 40.4409 76.4619 -5.46865 -4.0049 1.33471
RightUpLeg  -0.823214 -1.4749 -0.845308
RightLeg  6.07103 1.27539 -1.14394
RightFoot  -0.000545845 -0.0696343 0.527368
RightToes  5.82077e-011 -3.18055e-015 -2.98177e-016
Spine  -2.66523 0.461255 -4.61233
Spine1  12.5807 -0.617541 4.48669
HEad  -8.63752 7.39567 -4.23061
LeftShoulder1  -3.88251e-019 9.70628e-020 -3.87848e-018
LeftArm  -24.0353 51.9595 -68.3042
LeftForeArm  -11.2341 -15.9358 -3.09927
LeftHand  -0.780811 -3.19169 11.2614
RightShoulder  7.90658 10.7759 36.8741
RightArm  13.1136 -50.1247 3.92949
RightForeArm  3.74377 14.1697 -4.80562
RightHand  -0.407019 -0.418256 -9.22807
LeftUpLeg  0.463416 -6.14636 -8.61777
LeftLeg  5.95705 7.8073 4.58575
LeftFoot  -1.89073 -0.350537 3.52378
LeftToes  1.39127e-010 -3.60802e-011 -7.31315e-011
320
root  -5.07332 40.4787 76.586 -4.92178 -4.08997 1.18602
RightUpLeg  -0.647505 -0.904824 -0.345891
RightLeg  5.00885 0.612234 -1.01251
RightFoot  0.13211 -0.0403076 0.26722
RightToes  5.82077e-011 -3.18055e-015 -2.98177e-016
Spine  -2.94802 0.255091 -4.82995
Spine1  12.8264 -0.971445 5.02279
HEad  -9.5842 7.77306 -4.15756
LeftShoulder1  -3.88251e-019 9.70628e-020 -3.87848e-018
LeftArm  -24.9217 52.0013 -69.0847
LeftForeArm  -9.98412 -13.8045 -3.44722
LeftHand  -0.640017 -2.65013 9.90354
RightShoulder  7.9686 10.7868 37.1554
RightArm  14.0226 -49.7751 4.00702
RightForeArm  0.705943 15.4577 -5.60407
RightHand  -0.406868 -0.663229 -9.6822
LeftUpLeg  0.403332 -5.9935 -8.22519
LeftLeg  5.34833 7.72069 4.39845
LeftFoot  -1.83897 -0.324634 3.24903
LeftToes  1.39127e-010 -3.60802e-011 -7.31315e-011
